<svg width="24" height="24" viewBox="0 0 24 24" fill="none" xmlns="http://www.w3.org/2000/svg">
<g clip-path="url(#clip0_1023_6974)">
<path d="M18.364 15.536L16.95 14.12L18.364 12.706C18.8316 12.2424 19.2031 11.6911 19.4571 11.0836C19.711 10.4761 19.8425 9.8244 19.844 9.16595C19.8454 8.5075 19.7168 7.85525 19.4655 7.24665C19.2142 6.63804 18.8451 6.08507 18.3795 5.61947C17.9139 5.15387 17.3609 4.78483 16.7523 4.53351C16.1437 4.2822 15.4915 4.15357 14.833 4.15502C14.1746 4.15646 13.5229 4.28794 12.9154 4.54192C12.3079 4.79589 11.7565 5.16736 11.293 5.63499L9.879 7.04999L8.464 5.63599L9.88 4.22199C11.1928 2.90917 12.9734 2.17163 14.83 2.17163C16.6866 2.17163 18.4672 2.90917 19.78 4.22199C21.0928 5.53481 21.8304 7.31538 21.8304 9.17199C21.8304 11.0286 21.0928 12.8092 19.78 14.122L18.365 15.536H18.364ZM15.536 18.364L14.121 19.778C12.8082 21.0908 11.0276 21.8283 9.171 21.8283C7.31439 21.8283 5.53382 21.0908 4.221 19.778C2.90817 18.4652 2.17064 16.6846 2.17064 14.828C2.17064 12.9714 2.90817 11.1908 4.221 9.87799L5.636 8.46399L7.05 9.87999L5.636 11.294C5.16837 11.7575 4.7969 12.3089 4.54292 12.9164C4.28895 13.5239 4.15747 14.1756 4.15602 14.834C4.15458 15.4925 4.28321 16.1447 4.53452 16.7533C4.78584 17.3619 5.15488 17.9149 5.62048 18.3805C6.08607 18.8461 6.63905 19.2152 7.24765 19.4665C7.85626 19.7178 8.50851 19.8464 9.16696 19.845C9.82541 19.8435 10.4771 19.712 11.0846 19.4581C11.6921 19.2041 12.2434 18.8326 12.707 18.365L14.121 16.951L15.536 18.365V18.364ZM14.828 7.75699L16.243 9.17199L9.172 16.242L7.757 14.828L14.828 7.75799V7.75699Z" fill="#4E4B66"/>
</g>
<defs>
<clipPath id="clip0_1023_6974">
<rect width="24" height="24" fill="white"/>
</clipPath>
</defs>
</svg>
